<svg width="65" height="57" viewBox="0 0 65 57" fill="none" xmlns="http://www.w3.org/2000/svg">
<path d="M2.93367 12.8906H54.7769C55.8786 12.8906 56.7709 11.9974 56.7709 10.8945V2.91016C56.7709 1.80731 55.8786 0.914062 54.7769 0.914062H2.93367C1.832 0.914062 0.939697 1.80731 0.939697 2.91016V10.8945C0.939697 11.9974 1.832 12.8906 2.93367 12.8906ZM62.7528 22.8711H10.9095C9.80788 22.8711 8.91558 23.7643 8.91558 24.8672V32.8516C8.91558 33.9544 9.80788 34.8477 10.9095 34.8477H62.7528C63.8544 34.8477 64.7467 33.9544 64.7467 32.8516V24.8672C64.7467 23.7643 63.8544 22.8711 62.7528 22.8711ZM54.7769 44.8281H2.93367C1.832 44.8281 0.939697 45.7214 0.939697 46.8242V54.8086C0.939697 55.9114 1.832 56.8047 2.93367 56.8047H54.7769C55.8786 56.8047 56.7709 55.9114 56.7709 54.8086V46.8242C56.7709 45.7214 55.8786 44.8281 54.7769 44.8281Z" fill="#766F6F"/>
</svg>
